{
  "asset": {
    "generator": "Khronos glTF Blender I/O v1.5.17",
    "version": "2.0"
  },
  "scene": 0,
  "scenes": [
    {
      "name": "Scene",
      "nodes": [
        0
      ]
    }
  ],
  "nodes": [
    {
      "mesh": 0,
      "name": "sphere_gltf"
    }
  ],
  "materials": [
    {
      "doubleSided": true,
      "name": "forrest_ground_01",
      "normalTexture": {
        "index": 0
      },
      "pbrMetallicRoughness": {
        "baseColorTexture": {
          "index": 1
        },
        "metallicFactor": 0,
        "metallicRoughnessTexture": {
          "index": 2
        }
      }
    }
  ],
  "meshes": [
    {
      "name": "Sphere.001",
      "primitives": [
        {
          "attributes": {
            "POSITION": 0,
            "NORMAL": 1,
            "TEXCOORD_0": 2
          },
          "indices": 3,
          "material": 0
        }
      ]
    }
  ],
  "textures": [
    {
      "sampler": 0,
      "source": 0
    },
    {
      "sampler": 0,
      "source": 1
    },
    {
      "sampler": 0,
      "source": 2
    }
  ],
  "images": [
    {
      "mimeType": "image/jpeg",
      "name": "forrest_ground_01_nor_gl_4k",
      "uri": "textures/forrest_ground_01_nor_gl_4k.jpg"
    },
    {
      "mimeType": "image/jpeg",
      "name": "forrest_ground_01_diff_4k",
      "uri": "textures/forrest_ground_01_diff_4k.jpg"
    },
    {
      "mimeType": "image/jpeg",
      "name": "forrest_ground_01_rough_4k",
      "uri": "textures/forrest_ground_01_rough_4k.jpg"
    }
  ],
  "accessors": [
    {
      "bufferView": 0,
      "componentType": 5126,
      "count": 53903,
      "max": [
        0.9983099102973938,
        1.0054845809936523,
        0.9994760155677795
      ],
      "min": [
        -0.9983590245246887,
        -1.0049073696136475,
        -0.9994903802871704
      ],
      "type": "VEC3"
    },
    {
      "bufferView": 1,
      "componentType": 5126,
      "count": 53903,
      "type": "VEC3"
    },
    {
      "bufferView": 2,
      "componentType": 5126,
      "count": 53903,
      "type": "VEC2"
    },
    {
      "bufferView": 3,
      "componentType": 5123,
      "count": 322170,
      "type": "SCALAR"
    }
  ],
  "bufferViews": [
    {
      "buffer": 0,
      "byteLength": 646836,
      "byteOffset": 0
    },
    {
      "buffer": 0,
      "byteLength": 646836,
      "byteOffset": 646836
    },
    {
      "buffer": 0,
      "byteLength": 431224,
      "byteOffset": 1293672
    },
    {
      "buffer": 0,
      "byteLength": 644340,
      "byteOffset": 1724896
    }
  ],
  "samplers": [
    {
      "magFilter": 9729,
      "minFilter": 9987
    }
  ],
  "buffers": [
    {
      "byteLength": 2369236,
      "uri": "forrest_ground_01.bin"
    }
  ]
}