{
  "asset": {
    "generator": "Khronos glTF Blender I/O v1.5.17",
    "version": "2.0"
  },
  "scene": 0,
  "scenes": [
    {
      "name": "Scene",
      "nodes": [
        0
      ]
    }
  ],
  "nodes": [
    {
      "mesh": 0,
      "name": "sphere_gltf"
    }
  ],
  "materials": [
    {
      "doubleSided": true,
      "name": "aerial_rocks_04",
      "normalTexture": {
        "index": 0
      },
      "pbrMetallicRoughness": {
        "baseColorTexture": {
          "index": 1
        },
        "metallicFactor": 0,
        "metallicRoughnessTexture": {
          "index": 2
        }
      }
    }
  ],
  "meshes": [
    {
      "name": "Sphere.001",
      "primitives": [
        {
          "attributes": {
            "POSITION": 0,
            "NORMAL": 1,
            "TEXCOORD_0": 2
          },
          "indices": 3,
          "material": 0
        }
      ]
    }
  ],
  "textures": [
    {
      "sampler": 0,
      "source": 0
    },
    {
      "sampler": 0,
      "source": 1
    },
    {
      "sampler": 0,
      "source": 2
    }
  ],
  "images": [
    {
      "mimeType": "image/jpeg",
      "name": "aerial_rocks_04_nor_gl_4k",
      "uri": "textures/aerial_rocks_04_nor_gl_4k.jpg"
    },
    {
      "mimeType": "image/jpeg",
      "name": "aerial_rocks_04_diff_4k",
      "uri": "textures/aerial_rocks_04_diff_4k.jpg"
    },
    {
      "mimeType": "image/jpeg",
      "name": "aerial_rocks_04_rough_4k",
      "uri": "textures/aerial_rocks_04_rough_4k.jpg"
    }
  ],
  "accessors": [
    {
      "bufferView": 0,
      "componentType": 5126,
      "count": 53919,
      "max": [
        40.40365982055664,
        41.25529861450195,
        42.2808723449707
      ],
      "min": [
        -40.40363693237305,
        -41.12178421020508,
        -42.27350997924805
      ],
      "type": "VEC3"
    },
    {
      "bufferView": 1,
      "componentType": 5126,
      "count": 53919,
      "type": "VEC3"
    },
    {
      "bufferView": 2,
      "componentType": 5126,
      "count": 53919,
      "type": "VEC2"
    },
    {
      "bufferView": 3,
      "componentType": 5123,
      "count": 322170,
      "type": "SCALAR"
    }
  ],
  "bufferViews": [
    {
      "buffer": 0,
      "byteLength": 647028,
      "byteOffset": 0
    },
    {
      "buffer": 0,
      "byteLength": 647028,
      "byteOffset": 647028
    },
    {
      "buffer": 0,
      "byteLength": 431352,
      "byteOffset": 1294056
    },
    {
      "buffer": 0,
      "byteLength": 644340,
      "byteOffset": 1725408
    }
  ],
  "samplers": [
    {
      "magFilter": 9729,
      "minFilter": 9987
    }
  ],
  "buffers": [
    {
      "byteLength": 2369748,
      "uri": "aerial_rocks_04.bin"
    }
  ]
}