{
  "asset": {
    "generator": "Khronos glTF Blender I/O v1.5.17",
    "version": "2.0"
  },
  "scene": 0,
  "scenes": [
    {
      "name": "Scene",
      "nodes": [
        0
      ]
    }
  ],
  "nodes": [
    {
      "mesh": 0,
      "name": "sphere_gltf"
    }
  ],
  "materials": [
    {
      "doubleSided": true,
      "name": "leather_red_03",
      "normalTexture": {
        "index": 0
      },
      "pbrMetallicRoughness": {
        "baseColorTexture": {
          "index": 1
        },
        "metallicFactor": 0,
        "metallicRoughnessTexture": {
          "index": 2
        }
      }
    }
  ],
  "meshes": [
    {
      "name": "Sphere.001",
      "primitives": [
        {
          "attributes": {
            "POSITION": 0,
            "NORMAL": 1,
            "TEXCOORD_0": 2
          },
          "indices": 3,
          "material": 0
        }
      ]
    }
  ],
  "textures": [
    {
      "sampler": 0,
      "source": 0
    },
    {
      "sampler": 0,
      "source": 1
    },
    {
      "sampler": 0,
      "source": 2
    }
  ],
  "images": [
    {
      "mimeType": "image/jpeg",
      "name": "leather_red_03_nor_gl_4k",
      "uri": "textures/leather_red_03_nor_gl_4k.jpg"
    },
    {
      "mimeType": "image/jpeg",
      "name": "leather_red_03_coll1_4k",
      "uri": "textures/leather_red_03_coll1_4k.jpg"
    },
    {
      "mimeType": "image/jpeg",
      "name": "leather_red_03_rough_4k",
      "uri": "textures/leather_red_03_rough_4k.jpg"
    }
  ],
  "accessors": [
    {
      "bufferView": 0,
      "componentType": 5126,
      "count": 53896,
      "max": [
        0.14999821782112122,
        0.14999835193157196,
        0.14999833703041077
      ],
      "min": [
        -0.1499984860420227,
        -0.14999869465827942,
        -0.14999833703041077
      ],
      "type": "VEC3"
    },
    {
      "bufferView": 1,
      "componentType": 5126,
      "count": 53896,
      "type": "VEC3"
    },
    {
      "bufferView": 2,
      "componentType": 5126,
      "count": 53896,
      "type": "VEC2"
    },
    {
      "bufferView": 3,
      "componentType": 5123,
      "count": 322170,
      "type": "SCALAR"
    }
  ],
  "bufferViews": [
    {
      "buffer": 0,
      "byteLength": 646752,
      "byteOffset": 0
    },
    {
      "buffer": 0,
      "byteLength": 646752,
      "byteOffset": 646752
    },
    {
      "buffer": 0,
      "byteLength": 431168,
      "byteOffset": 1293504
    },
    {
      "buffer": 0,
      "byteLength": 644340,
      "byteOffset": 1724672
    }
  ],
  "samplers": [
    {
      "magFilter": 9729,
      "minFilter": 9987
    }
  ],
  "buffers": [
    {
      "byteLength": 2369012,
      "uri": "leather_red_03.bin"
    }
  ]
}